<svg xmlns="http://www.w3.org/2000/svg" width="28" height="28" viewBox="62 66 1130 1130" fill="none">
<title>ONIX Viewer owl — 28 px</title>
<desc>Faceted slate owl, folded teal book brows, calm amber eyes and recessed amber beak. Genuine vector artwork with a transparent background.</desc>
<defs><linearGradient id="irisOuter" x1="0" y1="0" x2="0" y2="1"><stop stop-color="#d58a0c"/><stop offset=".52" stop-color="#ffad16"/><stop offset="1" stop-color="#ffc13a"/></linearGradient><linearGradient id="irisInner" x1="0" y1="0" x2="0" y2="1"><stop stop-color="#e59b11"/><stop offset=".55" stop-color="#ffb82c"/><stop offset="1" stop-color="#ffda68"/></linearGradient><linearGradient id="pupil" x1="0" y1="0" x2="0" y2="1"><stop stop-color="#07121c"/><stop offset="1" stop-color="#0e1d28"/></linearGradient><radialGradient id="pageLight" gradientUnits="userSpaceOnUse" cx="418" cy="264" r="324"><stop stop-color="#def8f7"/><stop offset=".52" stop-color="#b5e0e3"/><stop offset="1" stop-color="#83bec7"/></radialGradient><linearGradient id="pageFold" gradientUnits="userSpaceOnUse" x1="258" y1="228" x2="532" y2="390"><stop stop-color="#cceced"/><stop offset="1" stop-color="#88bdc8"/></linearGradient><clipPath id="eye425"><path d="M 284 507 L 399 499 L 459 500 L 560 508 V 735 H 284 Z"/></clipPath><clipPath id="eye829"><path d="M 688 507 L 803 499 L 863 500 L 964 508 V 735 H 688 Z"/></clipPath></defs>
<polygon points="627,359 560,260 466,224 220,110 185,213 137,192 150,315 116,345 178,425 119,513 109,729 188,857 169,923 323,1081 478,1057 627,1159 776,1057 931,1081 1085,923 1066,857 1145,729 1135,513 1076,425 1138,345 1104,315 1117,192 1069,213 1034,110 788,224 694,260" fill="#1c2b37" stroke="#1c2b37" stroke-width="0.8" stroke-linejoin="round"/><g><polygon points="220,110 294,194 217,232 185,213" fill="#273443" stroke="#273443" stroke-width="0.8" stroke-linejoin="round"/><polygon points="137,192 185,213 217,232 176,285 150,315" fill="#24303e" stroke="#24303e" stroke-width="0.8" stroke-linejoin="round"/><polygon points="178,425 292,443 211,530" fill="#121c27" stroke="#121c27" stroke-width="0.8" stroke-linejoin="round"/><polygon points="119,513 178,425 211,530" fill="#384758" stroke="#384758" stroke-width="0.8" stroke-linejoin="round"/><polygon points="119,513 211,530 150,603 109,729" fill="#1c2835" stroke="#1c2835" stroke-width="0.8" stroke-linejoin="round"/><polygon points="109,729 150,603 246,785" fill="#253241" stroke="#253241" stroke-width="0.8" stroke-linejoin="round"/><polygon points="109,729 246,785 188,857" fill="#151f2a" stroke="#151f2a" stroke-width="0.8" stroke-linejoin="round"/><polygon points="188,857 246,785 284,951 169,923" fill="#2d3c4c" stroke="#2d3c4c" stroke-width="0.8" stroke-linejoin="round"/><polygon points="246,785 331,824 388,877 284,951" fill="#151f2a" stroke="#151f2a" stroke-width="0.8" stroke-linejoin="round"/><polygon points="284,951 388,877 478,1057 323,1081" fill="#364455" stroke="#364455" stroke-width="0.8" stroke-linejoin="round"/><polygon points="388,877 525,815 627,1015" fill="#b6bfca" stroke="#b6bfca" stroke-width="0.8" stroke-linejoin="round"/><polygon points="388,877 627,1015 478,1057" fill="#4d5b6c" stroke="#4d5b6c" stroke-width="0.8" stroke-linejoin="round"/><polygon points="478,1057 627,1015 627,1159" fill="#253241" stroke="#253241" stroke-width="0.8" stroke-linejoin="round"/><polygon points="178,425 372,420 627,591 523,535 402,465 292,443" fill="#131d29" stroke="#131d29" stroke-width="0.8" stroke-linejoin="round"/></g><g transform="translate(1254 0) scale(-1 1)"><g><polygon points="220,110 294,194 217,232 185,213" fill="#273443" stroke="#273443" stroke-width="0.8" stroke-linejoin="round"/><polygon points="137,192 185,213 217,232 176,285 150,315" fill="#24303e" stroke="#24303e" stroke-width="0.8" stroke-linejoin="round"/><polygon points="178,425 292,443 211,530" fill="#121c27" stroke="#121c27" stroke-width="0.8" stroke-linejoin="round"/><polygon points="119,513 178,425 211,530" fill="#384758" stroke="#384758" stroke-width="0.8" stroke-linejoin="round"/><polygon points="119,513 211,530 150,603 109,729" fill="#1c2835" stroke="#1c2835" stroke-width="0.8" stroke-linejoin="round"/><polygon points="109,729 150,603 246,785" fill="#253241" stroke="#253241" stroke-width="0.8" stroke-linejoin="round"/><polygon points="109,729 246,785 188,857" fill="#151f2a" stroke="#151f2a" stroke-width="0.8" stroke-linejoin="round"/><polygon points="188,857 246,785 284,951 169,923" fill="#2d3c4c" stroke="#2d3c4c" stroke-width="0.8" stroke-linejoin="round"/><polygon points="246,785 331,824 388,877 284,951" fill="#151f2a" stroke="#151f2a" stroke-width="0.8" stroke-linejoin="round"/><polygon points="284,951 388,877 478,1057 323,1081" fill="#364455" stroke="#364455" stroke-width="0.8" stroke-linejoin="round"/><polygon points="388,877 525,815 627,1015" fill="#b6bfca" stroke="#b6bfca" stroke-width="0.8" stroke-linejoin="round"/><polygon points="388,877 627,1015 478,1057" fill="#4d5b6c" stroke="#4d5b6c" stroke-width="0.8" stroke-linejoin="round"/><polygon points="478,1057 627,1015 627,1159" fill="#253241" stroke="#253241" stroke-width="0.8" stroke-linejoin="round"/><polygon points="178,425 372,420 627,591 523,535 402,465 292,443" fill="#131d29" stroke="#131d29" stroke-width="0.8" stroke-linejoin="round"/></g></g><g><polygon points="150,603 292,443 303,535 237,603" fill="#d8dee4" stroke="#d8dee4" stroke-width="0.8" stroke-linejoin="round"/><polygon points="292,443 402,465 303,535" fill="#738191" stroke="#738191" stroke-width="0.8" stroke-linejoin="round"/><polygon points="402,465 523,535 303,535" fill="#4c5a6a" stroke="#4c5a6a" stroke-width="0.8" stroke-linejoin="round"/><polygon points="237,603 303,535 323,724" fill="#919dac" stroke="#919dac" stroke-width="0.8" stroke-linejoin="round"/><polygon points="150,603 237,603 323,724 331,824" fill="#c6ced7" stroke="#c6ced7" stroke-width="0.8" stroke-linejoin="round"/><polygon points="323,724 545,668 440,780" fill="#c3ccd5" stroke="#c3ccd5" stroke-width="0.8" stroke-linejoin="round"/><polygon points="331,824 323,724 440,780" fill="#9da9b6" stroke="#9da9b6" stroke-width="0.8" stroke-linejoin="round"/><polygon points="545,668 575,717 525,815 440,780" fill="#728090" stroke="#728090" stroke-width="0.8" stroke-linejoin="round"/><polygon points="440,780 525,815 388,877 331,824" fill="#3e4d5e" stroke="#3e4d5e" stroke-width="0.8" stroke-linejoin="round"/><polygon points="150,603 331,824 246,785" fill="#515e6d" stroke="#515e6d" stroke-width="0.8" stroke-linejoin="round"/><polygon points="246,785 331,824 388,877 284,951" fill="#151f2a" stroke="#151f2a" stroke-width="0.8" stroke-linejoin="round"/></g><g transform="translate(1254 0) scale(-1 1)"><g><polygon points="150,603 292,443 303,535 237,603" fill="#d8dee4" stroke="#d8dee4" stroke-width="0.8" stroke-linejoin="round"/><polygon points="292,443 402,465 303,535" fill="#738191" stroke="#738191" stroke-width="0.8" stroke-linejoin="round"/><polygon points="402,465 523,535 303,535" fill="#4c5a6a" stroke="#4c5a6a" stroke-width="0.8" stroke-linejoin="round"/><polygon points="237,603 303,535 323,724" fill="#919dac" stroke="#919dac" stroke-width="0.8" stroke-linejoin="round"/><polygon points="150,603 237,603 323,724 331,824" fill="#c6ced7" stroke="#c6ced7" stroke-width="0.8" stroke-linejoin="round"/><polygon points="323,724 545,668 440,780" fill="#c3ccd5" stroke="#c3ccd5" stroke-width="0.8" stroke-linejoin="round"/><polygon points="331,824 323,724 440,780" fill="#9da9b6" stroke="#9da9b6" stroke-width="0.8" stroke-linejoin="round"/><polygon points="545,668 575,717 525,815 440,780" fill="#728090" stroke="#728090" stroke-width="0.8" stroke-linejoin="round"/><polygon points="440,780 525,815 388,877 331,824" fill="#3e4d5e" stroke="#3e4d5e" stroke-width="0.8" stroke-linejoin="round"/><polygon points="150,603 331,824 246,785" fill="#515e6d" stroke="#515e6d" stroke-width="0.8" stroke-linejoin="round"/><polygon points="246,785 331,824 388,877 284,951" fill="#151f2a" stroke="#151f2a" stroke-width="0.8" stroke-linejoin="round"/></g></g><polygon points="303,535 523,535 545,668 449,695 323,724" fill="#738396"/><polygon points="951,535 731,535 709,668 805,695 931,724" fill="#738396"/><g clip-path="url(#eye425)"><circle cx="425" cy="596" r="126" fill="#0b1721"/><circle cx="425" cy="596" r="111" fill="#f9b527"/><circle cx="425" cy="592" r="62" fill="#0b1721"/><circle cx="395.24" cy="568.1" r="12.4" fill="#fff"/></g><g clip-path="url(#eye829)"><circle cx="829" cy="596" r="126" fill="#0b1721"/><circle cx="829" cy="596" r="111" fill="#f9b527"/><circle cx="829" cy="592" r="62" fill="#0b1721"/><circle cx="799.24" cy="568.1" r="12.4" fill="#fff"/></g><polygon points="523,535 578,573 557,626 545,668" fill="#596b7c" stroke="#596b7c" stroke-width="0.8" stroke-linejoin="round"/><polygon points="578,573 627,591 627,622 584,668 557,626" fill="#6b7b8c" stroke="#6b7b8c" stroke-width="0.8" stroke-linejoin="round"/><polygon points="557,626 584,668 575,717 545,668" fill="#8798a9" stroke="#8798a9" stroke-width="0.8" stroke-linejoin="round"/><polygon points="545,668 575,717 525,815" fill="#415365" stroke="#415365" stroke-width="0.8" stroke-linejoin="round"/><polygon points="575,717 627,817 627,914 525,815" fill="#233240" stroke="#233240" stroke-width="0.8" stroke-linejoin="round"/><polygon points="584,668 627,817 575,717" fill="#172633" stroke="#172633" stroke-width="0.8" stroke-linejoin="round"/><g transform="translate(1254 0) scale(-1 1)"><polygon points="523,535 578,573 557,626 545,668" fill="#596b7c" stroke="#596b7c" stroke-width="0.8" stroke-linejoin="round"/><polygon points="578,573 627,591 627,622 584,668 557,626" fill="#6b7b8c" stroke="#6b7b8c" stroke-width="0.8" stroke-linejoin="round"/><polygon points="557,626 584,668 575,717 545,668" fill="#8798a9" stroke="#8798a9" stroke-width="0.8" stroke-linejoin="round"/><polygon points="545,668 575,717 525,815" fill="#415365" stroke="#415365" stroke-width="0.8" stroke-linejoin="round"/><polygon points="575,717 627,817 627,914 525,815" fill="#233240" stroke="#233240" stroke-width="0.8" stroke-linejoin="round"/><polygon points="584,668 627,817 575,717" fill="#172633" stroke="#172633" stroke-width="0.8" stroke-linejoin="round"/></g><g><polygon points="220,110 466,224 294,194" fill="#93ccd1" stroke="#93ccd1" stroke-width="0.8" stroke-linejoin="round"/><polygon points="294,194 466,224 560,260 627,494 512,343" fill="#bde6e8" stroke="#bde6e8" stroke-width="0.8" stroke-linejoin="round"/><polygon points="209,272 294,194 512,343 546,393" fill="#b1dde0" stroke="#b1dde0" stroke-width="0.8" stroke-linejoin="round"/><polygon points="560,260 627,359 627,494" fill="#3d8793" stroke="#3d8793" stroke-width="0.8" stroke-linejoin="round"/><polygon points="546,393 627,494 627,591" fill="#357986" stroke="#357986" stroke-width="0.8" stroke-linejoin="round"/><polygon points="116,345 176,345 209,272" fill="#88cacf" stroke="#88cacf" stroke-width="0.8" stroke-linejoin="round"/><polygon points="176,345 209,272 371,340 218,425 178,425 116,345" fill="#1c4b56" stroke="#1c4b56" stroke-width="0.8" stroke-linejoin="round"/><polygon points="371,340 546,393 627,591 372,420 218,425" fill="#1e4e5a" stroke="#1e4e5a" stroke-width="0.8" stroke-linejoin="round"/></g><g transform="translate(1254 0) scale(-1 1)"><g><polygon points="220,110 466,224 294,194" fill="#93ccd1" stroke="#93ccd1" stroke-width="0.8" stroke-linejoin="round"/><polygon points="294,194 466,224 560,260 627,494 512,343" fill="#bde6e8" stroke="#bde6e8" stroke-width="0.8" stroke-linejoin="round"/><polygon points="209,272 294,194 512,343 546,393" fill="#b1dde0" stroke="#b1dde0" stroke-width="0.8" stroke-linejoin="round"/><polygon points="560,260 627,359 627,494" fill="#3d8793" stroke="#3d8793" stroke-width="0.8" stroke-linejoin="round"/><polygon points="546,393 627,494 627,591" fill="#357986" stroke="#357986" stroke-width="0.8" stroke-linejoin="round"/><polygon points="116,345 176,345 209,272" fill="#88cacf" stroke="#88cacf" stroke-width="0.8" stroke-linejoin="round"/><polygon points="176,345 209,272 371,340 218,425 178,425 116,345" fill="#1c4b56" stroke="#1c4b56" stroke-width="0.8" stroke-linejoin="round"/><polygon points="371,340 546,393 627,591 372,420 218,425" fill="#1e4e5a" stroke="#1e4e5a" stroke-width="0.8" stroke-linejoin="round"/></g></g><polygon points="627,622 571.1,670.3 627,697.6" fill="#ffd159" stroke="#ffd159" stroke-width="0.8" stroke-linejoin="round"/><polygon points="627,622 627,697.6 682.9,670.3" fill="#f4ae2a" stroke="#f4ae2a" stroke-width="0.8" stroke-linejoin="round"/><polygon points="571.1,670.3 627,697.6 627,826.75 581.5,750.1" fill="#f5ac25" stroke="#f5ac25" stroke-width="0.8" stroke-linejoin="round"/><polygon points="627,697.6 682.9,670.3 672.5,750.1 627,826.75" fill="#ce8110" stroke="#ce8110" stroke-width="0.8" stroke-linejoin="round"/>
</svg>
